<svg xmlns="http://www.w3.org/2000/svg" viewBox="0 0 120 120" fill="none">
  <!-- Background circle -->
  <circle cx="60" cy="60" r="58" fill="#1a1a2e" stroke="#ff3030" stroke-width="1.5" opacity="0.6"/>
  <!-- Body/Hoodie -->
  <path d="M30 105 C30 82, 42 72, 60 70 C78 72, 90 82, 90 105" fill="#1e3a2e"/>
  <!-- Hoodie strings -->
  <path d="M54 74 L52 84" stroke="#2e4a3e" stroke-width="1.5"/>
  <path d="M66 74 L68 84" stroke="#2e4a3e" stroke-width="1.5"/>
  <!-- Neck -->
  <rect x="54" y="62" width="12" height="12" rx="3" fill="#f5d8b8"/>
  <!-- Face -->
  <ellipse cx="60" cy="45" rx="21" ry="24" fill="#f5d8b8"/>
  <!-- Hair - bob cut with bangs -->
  <path d="M38 40 C38 20, 46 12, 60 11 C74 12, 82 20, 82 40 C82 28, 76 16, 60 14 C44 16, 38 28, 38 40Z" fill="#2a1508"/>
  <!-- Bob sides -->
  <path d="M36 40 C35 50, 36 58, 40 64 C38 56, 37 48, 38 40Z" fill="#2a1508"/>
  <path d="M84 40 C85 50, 84 58, 80 64 C82 56, 83 48, 82 40Z" fill="#2a1508"/>
  <!-- Straight bangs -->
  <path d="M40 32 L80 32 C78 28, 72 22, 60 21 C48 22, 42 28, 40 32Z" fill="#2a1508"/>
  <line x1="40" y1="32" x2="80" y2="32" stroke="#2a1508" stroke-width="2"/>
  <!-- Eyes - sharp, developer -->
  <ellipse cx="50" cy="44" rx="2.8" ry="2.8" fill="#1a1a1a"/>
  <ellipse cx="70" cy="44" rx="2.8" ry="2.8" fill="#1a1a1a"/>
  <circle cx="51" cy="43" r="1.1" fill="white"/>
  <circle cx="71" cy="43" r="1.1" fill="white"/>
  <!-- Eyebrows - determined -->
  <path d="M44 38.5 Q50 36, 55 38.5" stroke="#2a1508" stroke-width="1.8" fill="none" stroke-linecap="round"/>
  <path d="M65 38.5 Q70 36, 76 38.5" stroke="#2a1508" stroke-width="1.8" fill="none" stroke-linecap="round"/>
  <!-- Nose -->
  <path d="M60 46 L58.5 52 Q60 53.5, 61.5 52 Z" fill="#e5c8a5" opacity="0.7"/>
  <!-- Mouth - confident smile -->
  <path d="M54 57 Q60 60, 66 57" stroke="#c4836a" stroke-width="1.5" fill="none" stroke-linecap="round"/>
  <!-- Ears -->
  <ellipse cx="37" cy="46" rx="2.5" ry="4.5" fill="#ecd0b0"/>
  <ellipse cx="83" cy="46" rx="2.5" ry="4.5" fill="#ecd0b0"/>
  <!-- Headphone on neck (dev vibe) -->
  <path d="M40 66 Q44 70, 48 68" stroke="#444" stroke-width="1.5" fill="none"/>
  <path d="M80 66 Q76 70, 72 68" stroke="#444" stroke-width="1.5" fill="none"/>
</svg>
