<svg xmlns="http://www.w3.org/2000/svg" viewBox="0 0 120 120" fill="none">
  <!-- Background circle -->
  <circle cx="60" cy="60" r="58" fill="#1a1a2e" stroke="#ff3030" stroke-width="1.5" opacity="0.6"/>
  <!-- Body/Hoodie style -->
  <path d="M30 105 C30 82, 42 72, 60 70 C78 72, 90 82, 90 105" fill="#2a2a3e"/>
  <!-- Hoodie neck -->
  <path d="M48 74 Q60 78, 72 74" fill="none" stroke="#3a3a4e" stroke-width="2"/>
  <!-- Neck -->
  <rect x="54" y="62" width="12" height="12" rx="3" fill="#f0d0a8"/>
  <!-- Face -->
  <ellipse cx="60" cy="45" rx="22" ry="25" fill="#f0d0a8"/>
  <!-- Hair - tech/modern style, slightly messy -->
  <path d="M38 40 C38 22, 46 15, 60 14 C74 15, 82 22, 82 40 C82 30, 76 20, 60 18 C44 20, 38 30, 38 40Z" fill="#1a1a1a"/>
  <path d="M38 40 C37 35, 40 28, 44 24 C41 30, 38 36, 38 40Z" fill="#1a1a1a"/>
  <path d="M82 40 C83 35, 80 28, 76 24 C79 30, 82 36, 82 40Z" fill="#1a1a1a"/>
  <!-- Messy bangs -->
  <path d="M42 32 C46 26, 52 23, 58 24 C54 26, 48 28, 44 34Z" fill="#1a1a1a"/>
  <path d="M78 32 C74 26, 68 24, 64 25 C68 27, 74 29, 76 34Z" fill="#1a1a1a"/>
  <!-- Eyes - focused/sharp -->
  <ellipse cx="50" cy="44" rx="3.2" ry="2.8" fill="#1a1a1a"/>
  <ellipse cx="70" cy="44" rx="3.2" ry="2.8" fill="#1a1a1a"/>
  <circle cx="51" cy="43.2" r="1" fill="white"/>
  <circle cx="71" cy="43.2" r="1" fill="white"/>
  <!-- Eyebrows - sharp, focused -->
  <path d="M44 38 Q50 36, 55 38.5" stroke="#1a1a1a" stroke-width="2" fill="none" stroke-linecap="round"/>
  <path d="M65 38.5 Q70 36, 76 38" stroke="#1a1a1a" stroke-width="2" fill="none" stroke-linecap="round"/>
  <!-- Nose -->
  <path d="M60 46 L58 53 Q60 54.5, 62 53 Z" fill="#dbb896" opacity="0.7"/>
  <!-- Mouth - slight smirk -->
  <path d="M53 57 Q60 60, 67 56" stroke="#c4836a" stroke-width="1.5" fill="none" stroke-linecap="round"/>
  <!-- Ears -->
  <ellipse cx="37" cy="46" rx="3" ry="5" fill="#e8c4a0"/>
  <ellipse cx="83" cy="46" rx="3" ry="5" fill="#e8c4a0"/>
  <!-- Headphone on neck hint (tech vibe) -->
  <path d="M42 68 Q46 72, 50 70" stroke="#555" stroke-width="1.5" fill="none"/>
  <path d="M78 68 Q74 72, 70 70" stroke="#555" stroke-width="1.5" fill="none"/>
</svg>