<svg xmlns="http://www.w3.org/2000/svg" viewBox="0 0 120 120" fill="none">
  <!-- Background circle -->
  <circle cx="60" cy="60" r="58" fill="#1a1a2e" stroke="#ff3030" stroke-width="1.5" opacity="0.6"/>
  <!-- Body/Suit -->
  <path d="M30 105 C30 82, 42 72, 60 70 C78 72, 90 82, 90 105" fill="#2a2a3e"/>
  <!-- Shirt collar -->
  <path d="M50 72 L60 82 L70 72" fill="none" stroke="#ff3030" stroke-width="1.2" opacity="0.6"/>
  <!-- Tie -->
  <path d="M58 78 L60 95 L62 78 Z" fill="#ff3030" opacity="0.5"/>
  <!-- Neck -->
  <rect x="54" y="62" width="12" height="12" rx="3" fill="#e8c4a0"/>
  <!-- Face -->
  <ellipse cx="60" cy="45" rx="22" ry="25" fill="#f0d0a8"/>
  <!-- Hair - executive style -->
  <path d="M38 42 C38 25, 45 18, 60 17 C75 18, 82 25, 82 42 C82 35, 78 24, 60 22 C42 24, 38 35, 38 42Z" fill="#2c2c2c"/>
  <path d="M36 44 C36 38, 38 30, 42 26 C40 32, 38 38, 38 44Z" fill="#2c2c2c"/>
  <path d="M84 44 C84 38, 82 30, 78 26 C80 32, 82 38, 82 44Z" fill="#2c2c2c"/>
  <!-- Side hair -->
  <path d="M38 42 C37 46, 37 48, 38 50 C39 47, 39 44, 38 42Z" fill="#2c2c2c"/>
  <path d="M82 42 C83 46, 83 48, 82 50 C81 47, 81 44, 82 42Z" fill="#2c2c2c"/>
  <!-- Eyes -->
  <ellipse cx="50" cy="44" rx="3" ry="2.5" fill="#1a1a1a"/>
  <ellipse cx="70" cy="44" rx="3" ry="2.5" fill="#1a1a1a"/>
  <circle cx="51.2" cy="43.5" r="0.8" fill="white"/>
  <circle cx="71.2" cy="43.5" r="0.8" fill="white"/>
  <!-- Eyebrows -->
  <path d="M45 39 Q50 37, 54 39" stroke="#2c2c2c" stroke-width="1.8" fill="none" stroke-linecap="round"/>
  <path d="M66 39 Q70 37, 75 39" stroke="#2c2c2c" stroke-width="1.8" fill="none" stroke-linecap="round"/>
  <!-- Nose -->
  <path d="M60 46 L58 53 Q60 54.5, 62 53 Z" fill="#dbb896" opacity="0.7"/>
  <!-- Mouth - confident smile -->
  <path d="M52 57 Q60 62, 68 57" stroke="#c4836a" stroke-width="1.5" fill="none" stroke-linecap="round"/>
  <!-- Glasses - CEO look -->
  <rect x="43" y="40" width="14" height="10" rx="3" stroke="#888" stroke-width="1.2" fill="none"/>
  <rect x="63" y="40" width="14" height="10" rx="3" stroke="#888" stroke-width="1.2" fill="none"/>
  <path d="M57 45 L63 45" stroke="#888" stroke-width="1"/>
  <!-- Ears -->
  <ellipse cx="37" cy="46" rx="3" ry="5" fill="#e8c4a0"/>
  <ellipse cx="83" cy="46" rx="3" ry="5" fill="#e8c4a0"/>
</svg>