<svg xmlns="http://www.w3.org/2000/svg" viewBox="0 0 120 120" fill="none">
  <!-- Background circle -->
  <circle cx="60" cy="60" r="58" fill="#1a1a2e" stroke="#ff3030" stroke-width="1.5" opacity="0.6"/>
  <!-- Body/Shirt -->
  <path d="M30 105 C30 82, 42 72, 60 70 C78 72, 90 82, 90 105" fill="#2e3a50"/>
  <!-- Shirt collar -->
  <path d="M52 72 L60 80 L68 72" fill="none" stroke="#3e4a60" stroke-width="2"/>
  <!-- Neck -->
  <rect x="54" y="62" width="12" height="12" rx="3" fill="#f0d0a8"/>
  <!-- Face -->
  <ellipse cx="60" cy="45" rx="22" ry="25" fill="#f0d0a8"/>
  <!-- Hair - neat side part -->
  <path d="M38 38 C38 20, 46 13, 60 12 C74 13, 82 20, 82 38 C82 28, 76 18, 60 16 C44 18, 38 28, 38 38Z" fill="#2a1a0a"/>
  <path d="M38 38 C37 33, 39 26, 43 22 C40 28, 38 34, 38 38Z" fill="#2a1a0a"/>
  <!-- Side part -->
  <path d="M44 28 C50 20, 58 18, 68 20 C62 18, 52 19, 46 26Z" fill="#2a1a0a"/>
  <!-- Eyes - friendly -->
  <ellipse cx="50" cy="44" rx="3" ry="2.5" fill="#1a1a1a"/>
  <ellipse cx="70" cy="44" rx="3" ry="2.5" fill="#1a1a1a"/>
  <circle cx="51" cy="43.2" r="1" fill="white"/>
  <circle cx="71" cy="43.2" r="1" fill="white"/>
  <!-- Eyebrows - soft -->
  <path d="M44 38.5 Q50 36.5, 55 39" stroke="#2a1a0a" stroke-width="1.8" fill="none" stroke-linecap="round"/>
  <path d="M65 39 Q70 36.5, 76 38.5" stroke="#2a1a0a" stroke-width="1.8" fill="none" stroke-linecap="round"/>
  <!-- Glasses - round -->
  <circle cx="50" cy="44" r="8" fill="none" stroke="#555" stroke-width="1.5"/>
  <circle cx="70" cy="44" r="8" fill="none" stroke="#555" stroke-width="1.5"/>
  <path d="M58 44 L62 44" stroke="#555" stroke-width="1.5"/>
  <path d="M38 43 L42 44" stroke="#555" stroke-width="1.2"/>
  <path d="M78 44 L82 43" stroke="#555" stroke-width="1.2"/>
  <!-- Nose -->
  <path d="M60 46 L58 53 Q60 54.5, 62 53 Z" fill="#dbb896" opacity="0.7"/>
  <!-- Mouth - warm smile -->
  <path d="M52 57 Q60 62, 68 57" stroke="#c4836a" stroke-width="1.5" fill="none" stroke-linecap="round"/>
  <!-- Ears -->
  <ellipse cx="37" cy="46" rx="3" ry="5" fill="#e8c4a0"/>
  <ellipse cx="83" cy="46" rx="3" ry="5" fill="#e8c4a0"/>
</svg>
